<?xml version="1.0" standalone="no"?> <!DOCTYPE svg PUBLIC "-//W3C//DTD SVG 1.0//EN" "http://www.w3.org/TR/2001/REC-SVG-20010904/DTD/svg10.dtd" > <svg xmlns="http://www.w3.org/2000/svg" width="100%" height="100%">
<defs >
<font horiz-adv-x="1008" ><font-face
    font-family="Bookman Old Style"
    units-per-em="2048"
    panose-1="2 5 6 4 5 5 5 2 2 4"
    ascent="1929"
    descent="-475"
    alphabetic="0" />
<missing-glyph horiz-adv-x="1536" d="M256 0V1280H1280V0H256ZM288 32H1248V1248H288V32Z" />
<glyph unicode=" " glyph-name="space" horiz-adv-x="655" />
<glyph unicode="!" glyph-name="exclam" horiz-adv-x="614" d="M264 335L188 1229Q184 1267 184 1277Q184 1350 216 1384T310 1419Q364 1419 397 1386T431 1297Q431 1279 426 1237L346 335H264ZM307 233Q360 233 396 197T433 108Q433 56 396 20T307 -17Q256 -17
219 19T182 108Q182 160 218 196T307 233Z" />
<glyph unicode="&quot;" glyph-name="quotedbl" horiz-adv-x="778" d="M201 905L153 1255Q150 1281 150 1310Q150 1366 171 1392T229 1419Q262 1419 282 1395T303 1324Q303 1297 296 1258L242 905H201ZM526 905L479 1255Q475 1281 475 1309Q475 1366 496 1392T554
1419Q588 1419 608 1395T628 1326Q628 1298 622 1258L567 905H526Z" />
<glyph unicode="#" glyph-name="numbersign" horiz-adv-x="1229" d="M1061 559V442H842L777 -1H658L723 442H450L388 -1H266L333 442H115V559H351L388 830H171V946H410L472 1363H587L526 946H798L859 1363H977L916 946H1112V829H899L859 559H1061ZM781 829H508L468
559H739L781 829Z" />
<glyph unicode="$" glyph-name="dollar" horiz-adv-x="1270" d="M580 1620H676V1383Q746 1374 798 1351T906 1282L950 1370H1020L1123 965L1033 934Q980 1052 925 1124T814 1234T676 1293V806Q704 796 808 760Q925 719 946 709Q1008 679 1062 629T1143 516T1171
383Q1171 282 1115 197T943 57T676 0V-240H580V10Q500 29 432 65T293 165L245 27H175L85 509L175 528Q238 388 291 316T414 194T580 110V659Q552 669 480 692Q386 723 357 737Q283 772 226 825T143 931T118 1046Q118 1138 171 1217T331 1345T580 1395V1620ZM580
1302Q503 1303 450 1284Q376 1257 332 1205T288 1084Q288 1032 312 989T393 912T580 835V1302ZM676 99Q754 98 815 121Q901 153 948 214T996 354Q996 445 929 510T676 627V99Z" />
<glyph unicode="%" glyph-name="percent" horiz-adv-x="1843" d="M399 1419Q546 1419 630 1324Q723 1219 723 1038Q723 867 631 768T391 668Q238 668 147 785Q72 882 72 1044Q72 1223 162 1321T399 1419ZM397 1355Q344 1355 304 1325T237 1217T209 1035Q209 933
234 865T301 765T394 732Q445 732 489 764T559 868T585 1044Q585 1184 538 1269T397 1355ZM1446 1419L517 -24H397L1325 1419H1446ZM1448 726Q1595 726 1679 631Q1771 527 1771 345Q1771 175 1679 76T1439 -24Q1286 -24 1196 92Q1121 189 1121 352Q1121 531 1210
628T1448 726ZM1445 663Q1393 663 1353 633T1285 525T1257 343Q1257 241 1282 173T1350 72T1442 40Q1494 40 1537 72T1607 175T1633 351Q1633 492 1586 577T1445 663Z" />
<glyph unicode="&amp;" glyph-name="ampersand" horiz-adv-x="1638" d="M1020 881H1486V796H1430Q1369 796 1348 788T1311 758T1288 694Q1251 481 1137 301Q1157 246 1204 186T1286 106T1361 86Q1412 86 1446 117T1480 191Q1480 226 1467 246Q1453 266 1408 288Q1372
306 1357 329T1342 380Q1342 420 1367 445T1435 470Q1506 470 1558 409T1611 253Q1611 141 1526 59T1321 -24Q1239 -24 1166 17T1020 157Q918 66 840 29Q728 -24 597 -24Q452 -24 337 34T160 192T97 408Q97 518 149 608T307 768Q384 819 497 855Q414 889 371 927T305
1015T282 1123Q282 1244 375 1326Q480 1419 627 1419Q772 1419 867 1334T962 1133Q962 1055 923 989T814 879Q770 850 698 833Q785 805 845 760T968 627T1092 406Q1189 621 1189 728Q1189 764 1167 780T1079 796H1020V881ZM627 1327Q546 1327 491 1269T436 1118Q436
1027 491 968T627 909Q705 909 761 968T818 1115Q818 1209 763 1268T627 1327ZM586 806Q463 745 435 724Q389 691 353 643T300 545T283 441Q283 315 367 214Q474 85 638 85Q719 85 795 120Q900 170 967 238Q959 251 942 285L785 593Q765 633 730 686Q708 719 674
749T586 806Z" />
<glyph unicode="&apos;" glyph-name="quotesingle" horiz-adv-x="451" d="M200 905L152 1255Q149 1281 149 1310Q149 1366 170 1392T228 1419Q261 1419 281 1395T302 1324Q302 1297 295 1258L241 905H200Z" />
<glyph unicode="(" glyph-name="parenleft" horiz-adv-x="614" d="M493 1457L556 1395Q502 1338 466 1255Q413 1130 390 962T366 486Q366 170 388 12T463 -269Q499 -355 556 -416L493 -473Q396 -387 324 -256T216 46T180 506Q180 793 219 965T348 1288Q415 1401
493 1457Z" />
<glyph unicode=")" glyph-name="parenright" horiz-adv-x="614" d="M122 -473L59 -410Q114 -354 149 -270Q202 -146 225 22T249 499Q249 814 227 972T153 1253Q116 1339 59 1400L122 1457Q219 1372 291 1241T399 938T435 478Q435 191 396 19T268 -303Q200 -417 122 -473Z" />
<glyph unicode="*" glyph-name="asterisk" horiz-adv-x="901" d="M428 1116L385 1269Q376 1298 376 1327Q376 1372 396 1395T451 1419Q485 1419 501 1398Q524 1369 524 1323Q524 1299 516 1269L476 1116L516 1086L645 1176Q693 1211 734 1211Q773 1211 794 1189T815
1130Q815 1097 780 1071T690 1044H531L516 992L645 895Q707 848 707 788Q707 762 683 740T628 717Q610 717 580 738T531 813L476 965H428L373 813Q355 764 328 740T276 715Q246 715 222 738T197 785Q197 844 261 895L385 992L373 1044H212Q155 1044 121 1069T86
1128Q86 1162 106 1184T158 1207Q211 1207 254 1176L385 1086L428 1116Z" />
<glyph unicode="+" glyph-name="plus" horiz-adv-x="1229" d="M1102 759V636H676V210H553V636H127V759H553V1185H676V759H1102Z" />
<glyph unicode="," glyph-name="comma" horiz-adv-x="655" d="M221 -362L167 -296Q372 -129 372 -17Q372 -4 370 15Q353 8 337 4T307 0Q259 0 230 31T201 110Q201 157 236 192T320 227Q388 227 436 173T485 32Q485 -24 462 -85T395 -199T221 -362Z" />
<glyph unicode="-" glyph-name="hyphen" horiz-adv-x="819" d="M112 571H706V447H112V571Z" />
<glyph unicode="." glyph-name="period" horiz-adv-x="655" d="M327 233Q380 233 416 197T453 108Q453 56 416 20T327 -17Q276 -17 239 19T202 108Q202 160 238 196T327 233Z" />
<glyph unicode="/" glyph-name="slash" horiz-adv-x="1229" d="M1001 1467L318 -446H170L849 1467H1001Z" />
<glyph unicode="0" glyph-name="zero" horiz-adv-x="1270" d="M638 1419Q792 1419 907 1341T1094 1094T1166 687Q1166 333 989 136Q845 -24 625 -24Q476 -24 361 55T175 294T104 698Q104 945 173 1101T363 1338T638 1419ZM633 1320Q529 1320 450 1244Q381 1178
341 1036Q295 874 295 678Q295 526 323 403T399 211T505 109T631 76Q730 76 816 153Q885 216 925 341Q973 493 973 698Q973 910 924 1058T804 1263T633 1320Z" />
<glyph unicode="1" glyph-name="one" horiz-adv-x="1270" d="M688 1395H763V237Q763 155 773 132T808 96T903 84H1001V0H342V84H451Q522 84 545 96T582 136T595 237V1189H342V1275Q549 1304 688 1395Z" />
<glyph unicode="2" glyph-name="two" horiz-adv-x="1270" d="M232 869L135 857Q127 928 127 973Q127 1091 191 1196T369 1360T632 1419Q775 1419 883 1364T1048 1212T1106 991Q1106 886 1069 797T948 616Q886 548 697 408Q459 230 332 150H852Q944 150 972 167Q1011
189 1025 269L1034 326H1119L1051 -50H987L976 0H102V84L262 205Q444 340 529 412Q690 548 771 644T883 818T914 981Q914 1122 824 1212T588 1302Q484 1302 403 1257T274 1131T227 956Q227 921 232 869Z" />
<glyph unicode="3" glyph-name="three" horiz-adv-x="1270" d="M271 1022L175 1037Q188 1145 231 1216Q288 1312 392 1365T631 1419Q764 1419 865 1372T1017 1246T1069 1076Q1069 996 1030 933T914 820Q860 785 773 759Q866 746 925 716Q1021 667 1076 581T1131
392Q1131 227 986 102T611 -24Q384 -24 229 97Q99 200 99 304Q99 345 125 372T192 400Q236 400 267 366Q284 347 306 275Q337 174 411 121Q485 68 595 68Q693 68 770 111T893 233T938 406Q938 482 906 542T813 645Q767 678 696 691T567 704H474V801H533Q621 801
701 821T829 906T877 1051Q877 1121 844 1177T745 1266T595 1299Q512 1299 443 1265T331 1174T271 1022Z" />
<glyph unicode="4" glyph-name="four" horiz-adv-x="1270" d="M742 1395H911V584H1173V459H911V0H742V459H85V635L742 1395ZM742 584V1240L176 584H742Z" />
<glyph unicode="5" glyph-name="five" horiz-adv-x="1270" d="M275 1395H897Q954 1395 966 1401Q983 1411 986 1444H1059V1233H368L351 881Q394 893 460 901Q545 911 612 911Q779 911 903 851T1091 687T1156 453Q1156 253 1006 115T624 -24Q490 -24 382 24T212
150T151 288Q151 327 177 355T244 384Q286 384 318 349Q336 331 361 261Q395 163 462 117Q528 70 628 70Q728 70 806 113T929 238T974 420Q974 525 926 607T787 734T566 779Q487 779 397 762T241 719L275 1395Z" />
<glyph unicode="6" glyph-name="six" horiz-adv-x="1270" d="M1036 1421V1330Q789 1327 637 1258T412 1052T331 713Q382 791 435 834T560 901T717 925Q853 925 959 865T1124 703T1183 461Q1183 240 1050 114Q903 -24 669 -24Q500 -24 384 46T200 260T131 616Q131
829 203 994T404 1259T684 1390T958 1421H1036ZM671 819Q527 819 435 710T342 448Q342 340 387 249T503 113T663 68Q801 68 892 172T984 453Q984 621 895 720T671 819Z" />
<glyph unicode="7" glyph-name="seven" horiz-adv-x="1270" d="M222 1446H288L300 1395H1174V1310Q1017 1129 890 898T692 426Q641 253 609 0H404Q434 223 502 417T700 822T1015 1245H392Q324 1245 299 1238T260 1216T236 1163L231 1144L197 1026L112 1044L222 1446Z" />
<glyph unicode="8" glyph-name="eight" horiz-adv-x="1270" d="M792 774Q910 729 972 689Q1063 631 1109 553T1155 382Q1155 217 1013 97T630 -24Q375 -24 230 112Q115 221 115 359Q115 470 193 558Q287 663 461 722Q325 786 265 852Q188 939 188 1061Q188 1212
302 1305Q442 1419 652 1419Q844 1419 962 1321T1081 1095Q1081 1032 1052 975T961 868T792 774ZM701 811Q815 897 849 931T901 1008T920 1093Q920 1152 885 1205T783 1292T631 1325Q507 1325 425 1257T343 1098Q343 1026 394 969T584 857L701 811ZM560 683Q419
621 337 522Q273 444 273 360Q273 246 374 158T635 69Q798 69 907 170Q996 252 996 346Q996 420 938 487T720 619L560 683Z" />
<glyph unicode="9" glyph-name="nine" horiz-adv-x="1270" d="M235 -24V69Q483 72 635 140T859 347T940 685Q889 607 836 564T711 497T555 473Q419 473 313 533T147 695T88 935Q88 1155 221 1281Q368 1419 603 1419Q772 1419 888 1349T1072 1135T1140 781Q1140
571 1069 406T871 142T590 9T313 -24H235ZM601 580Q744 580 836 688T929 950Q929 1058 884 1149T769 1285T608 1330Q471 1330 379 1226T287 945Q287 777 376 679T601 580Z" />
<glyph unicode=":" glyph-name="colon" horiz-adv-x="655" d="M327 989Q379 989 416 952T453 863Q453 810 416 773T327 736Q276 736 239 772T202 861Q202 913 240 951T327 989ZM327 233Q380 233 416 197T453 108Q453 56 416 20T327 -17Q276 -17 239 19T202 108Q202
160 238 196T327 233Z" />
<glyph unicode=";" glyph-name="semicolon" horiz-adv-x="655" d="M328 989Q380 989 416 952T453 863Q453 810 417 773T328 736Q276 736 239 772T202 861Q202 913 240 951T328 989ZM221 -362L167 -296Q372 -129 372 -17Q372 -4 370 15Q353 8 337 4T307 0Q259 0
230 31T201 110Q201 157 236 192T320 227Q388 227 436 173T485 32Q485 -24 462 -85T395 -199T221 -362Z" />
<glyph unicode="&lt;" glyph-name="less" horiz-adv-x="1229" d="M1047 181L146 581V681L1047 1082V938L329 631L1047 324V181Z" />
<glyph unicode="=" glyph-name="equal" horiz-adv-x="1229" d="M1102 916V793H127V916H1102ZM1102 602V479H127V602H1102Z" />
<glyph unicode="&gt;" glyph-name="greater" horiz-adv-x="1229" d="M182 1082L1083 681V581L182 181V324L900 631L182 938V1082Z" />
<glyph unicode="?" glyph-name="question" horiz-adv-x="1106" d="M355 335V690Q554 688 651 723T800 830T852 993Q852 1075 807 1154T686 1278T526 1322Q458 1322 409 1297T317 1210Q275 1149 257 1135Q222 1108 187 1108Q163 1108 140 1120T107 1149Q94 1173
94 1197Q94 1276 186 1336Q314 1419 494 1419Q656 1419 780 1359T968 1198T1032 972Q1032 775 876 666T459 556V335H355ZM406 233Q458 233 494 197T531 108Q531 56 494 20T406 -17Q354 -17 317 19T280 108Q280 160 316 196T406 233Z" />
<glyph unicode="@" glyph-name="at" horiz-adv-x="1679" d="M1268 958L1151 559L1084 320Q1068 264 1062 224Q1058 197 1058 181Q1058 147 1079 125T1134 103Q1214 103 1315 181T1487 419T1557 755Q1557 930 1475 1071T1245 1292T909 1371Q678 1371 485 1252T172
906T51 418Q51 184 151 2T430 -280T834 -381Q1012 -381 1166 -317T1440 -131T1638 172H1696Q1663 70 1621 0Q1546 -128 1425 -229T1150 -386T829 -442Q582 -442 383 -327T71 -11T-43 444Q-43 716 83 940T428 1293T903 1422Q1117 1422 1277 1337T1527 1092T1617
737Q1617 535 1528 358T1318 106T1067 31Q990 31 951 67T912 170Q912 224 930 315Q788 143 699 87T537 30Q488 30 448 58T381 142T355 265Q355 399 439 568T660 850T906 964Q949 964 987 947T1045 903T1078 826L1111 936L1268 958ZM917 917Q873 917 817 882T687
742T564 505T513 296Q513 232 548 192T629 151Q686 151 759 201T917 375Q960 438 987 515Q1042 674 1042 770Q1042 838 1006 877T917 917Z" />
<glyph unicode="A" glyph-name="A" horiz-adv-x="1393" d="M616 1395H781L1214 229Q1246 141 1278 113T1366 84H1388V0H891V84Q915 86 938 86Q986 86 1001 96Q1030 115 1030 144Q1030 165 1002 247L910 517H404L296 215Q279 168 279 150Q279 130 289 115T318 93T376
85Q403 85 420 84V0H3V84Q61 84 86 95T131 132T181 240L616 1395ZM441 615H872L656 1215L441 615Z" />
<glyph unicode="B" glyph-name="B" horiz-adv-x="1515" d="M83 1395H746Q989 1395 1079 1373Q1212 1341 1289 1257T1367 1055Q1367 970 1326 903T1207 787Q1157 756 1071 734Q1180 714 1237 686Q1323 644 1373 566T1423 390Q1423 295 1374 214T1236 81T1027 15T782
0H83V84H130Q198 84 223 105Q259 134 259 201V1170Q259 1238 248 1263T215 1299T130 1310H83V1395ZM446 1284V773H701Q880 773 946 790Q1049 817 1103 882T1158 1049Q1158 1135 1109 1192T976 1271Q922 1284 752 1284H446ZM446 677V219Q446 150 452 137Q460 119
484 112Q501 107 580 107H716Q918 107 1004 129T1152 224T1213 399Q1213 485 1164 551T1027 647T716 677H446Z" />
<glyph unicode="C" glyph-name="C" horiz-adv-x="1515" d="M1208 1395H1280L1407 930L1314 904Q1239 1065 1200 1120Q1136 1209 1041 1261T830 1313Q695 1313 582 1241T398 1028T327 713Q327 533 398 392T592 175T855 99Q988 99 1127 175T1368 388L1448 333Q1386
241 1314 177Q1200 74 1077 25T807 -24Q482 -24 279 217Q111 417 111 693Q111 896 204 1060T460 1322T813 1419Q914 1419 1000 1392T1176 1303L1208 1395Z" />
<glyph unicode="D" glyph-name="D" horiz-adv-x="1638" d="M97 1310V1395H595Q937 1395 1072 1352Q1271 1289 1395 1117Q1532 927 1532 680Q1532 512 1465 368T1287 135Q1196 61 1068 31T810 0H97V84H155L174 83Q211 83 234 98T268 138Q275 157 275 226V1159Q275
1238 265 1261Q251 1292 220 1304Q202 1310 97 1310ZM461 108H763Q808 108 912 124T1062 163Q1128 197 1190 272T1285 453T1319 695Q1319 830 1286 929T1185 1107T1035 1227T850 1280Q795 1285 666 1285H461V108Z" />
<glyph unicode="E" glyph-name="E" horiz-adv-x="1475" d="M98 1395H1232L1363 1028L1275 995Q1242 1085 1203 1136T1110 1224T1000 1272T799 1284H461V773H629Q722 773 769 804T835 883Q849 918 849 1005V1028H947V416H849V469Q849 539 839 570T800 628T740 666T629
676H461V222Q461 151 467 136T489 113T571 106H780Q955 106 1053 148T1227 277Q1286 345 1340 469L1431 437L1275 0H98V84H138Q208 84 225 93Q251 106 265 135Q275 155 275 222V1182Q275 1247 262 1269T217 1303Q200 1310 98 1310V1395Z" />
<glyph unicode="F" glyph-name="F" horiz-adv-x="1311" d="M109 1395H1176L1305 1029L1218 996Q1163 1124 1110 1180T987 1260T767 1284H466V748H603Q711 748 758 769T830 835T855 965V1002H953V390H855V444Q855 523 831 567T766 630T618 650H466V216Q466 156
478 133T515 97T603 84H640V0H109V84H143Q207 84 231 96T267 133T279 226V1175Q279 1237 268 1262T235 1298T156 1310H109V1395Z" />
<glyph unicode="G" glyph-name="G" horiz-adv-x="1638" d="M1197 1395H1270L1384 965L1294 934Q1204 1138 1087 1225T822 1312Q609 1312 465 1135T321 713Q321 537 394 390T591 166T852 89Q941 89 1021 121T1152 199Q1189 233 1202 274T1214 388V454Q1214 533
1196 566T1143 613Q1117 624 1003 624V708H1569V624H1523Q1464 624 1443 613T1411 577T1401 483V0H1302L1249 122Q1165 61 1070 27Q928 -24 789 -24Q508 -24 308 182T107 697Q107 1003 310 1211T796 1419Q867 1419 936 1405T1062 1365Q1105 1346 1162 1303L1197
1395Z" />
<glyph unicode="H" glyph-name="H" horiz-adv-x="1638" d="M97 1395H635V1310H598Q534 1310 507 1298T468 1256Q459 1234 459 1163V774H1182V1153Q1182 1230 1177 1246Q1169 1278 1143 1294T1062 1310H1007V1395H1541V1310H1493Q1437 1310 1414 1298T1381 1264T1371
1171V221Q1371 142 1381 121T1421 90Q1439 84 1541 84V0H1007V84H1046Q1120 84 1144 94T1176 126Q1182 143 1182 233V666H459V221Q459 142 469 120T510 90Q532 84 635 84V0H97V84H131Q209 84 228 92T259 125T271 210V1171Q271 1236 261 1261T228 1298T153 1310H97V1395Z"
/>
<glyph unicode="I" glyph-name="I" horiz-adv-x="696" d="M81 1395H615V1310H574Q516 1310 490 1294T452 1249T440 1134V235Q440 167 453 139T489 97T574 84H615V0H81V84H125Q184 84 208 97T244 136T255 235V1155Q255 1232 244 1258T209 1297T125 1310H81V1395Z" />
<glyph unicode="J" glyph-name="J" horiz-adv-x="1229" d="M614 1395H1148V1310H1095Q1041 1310 1019 1299T984 1264T972 1192V455Q972 288 918 194T746 38T467 -24Q254 -24 125 89T-5 352Q-5 427 29 468T114 509Q154 509 180 479T207 401Q207 387 199 344Q190
299 190 281Q190 207 265 147T461 86Q560 86 639 130T752 240T787 431V1160Q787 1234 776 1259T739 1297T647 1310H614V1395Z" />
<glyph unicode="K" glyph-name="K" horiz-adv-x="1475" d="M103 1395H641V1310H603Q537 1310 510 1294T472 1244Q463 1219 463 1162V635L987 1190Q1028 1234 1035 1247T1043 1274Q1043 1292 1026 1301T950 1310H918V1395H1418V1310Q1359 1311 1311 1297T1235 1262Q1174
1217 1148 1190L774 807L1201 241Q1259 164 1293 136T1363 96T1475 84V0H883V84H918Q977 84 988 87Q1005 91 1015 103T1025 128Q1025 154 956 247L641 675L463 491V224Q463 155 477 130T520 93Q543 84 641 84V0H103V84H145Q208 84 231 96T266 138T279 241V1162Q279
1235 267 1261T232 1299T134 1310H103V1395Z" />
<glyph unicode="L" glyph-name="L" horiz-adv-x="1229" d="M94 1395H635V1310H585Q527 1310 503 1299T468 1267T457 1192V219Q457 152 462 139Q468 121 488 113Q502 107 569 107H644Q773 107 868 144T1032 253T1165 467L1254 437L1098 0H94V84H138Q202 84 224
95T258 131T270 219V1168Q270 1240 259 1264T227 1299T138 1310H94V1395Z" />
<glyph unicode="M" glyph-name="M" horiz-adv-x="1884" d="M96 1395H537L949 290L1350 1395H1776V1310H1740Q1675 1310 1653 1299T1617 1261T1604 1170V250Q1604 163 1614 137T1649 98T1740 84H1776V0H1243V84H1281Q1332 84 1355 92T1394 118T1412 157Q1417 198
1417 221V1248L962 0H863L404 1230V241Q404 166 417 140T457 99T556 84H588V0H96V84H124Q195 84 225 99T269 141T282 250V1161Q282 1237 271 1261T235 1298T144 1310H96V1395Z" />
<glyph unicode="N" glyph-name="N" horiz-adv-x="1515" d="M88 1395H516L1151 349V1145Q1151 1216 1137 1247T1095 1294T1012 1310H976V1395H1443V1310H1418Q1356 1310 1334 1300Q1303 1286 1288 1249T1272 1145V0H1151L386 1257V261Q386 178 391 160Q398 137
416 118T460 92T561 84V0H88V84H113Q185 84 210 98T250 146T264 261V1145Q264 1228 260 1246Q251 1280 226 1295T124 1310H88V1395Z" />
<glyph unicode="O" glyph-name="O" horiz-adv-x="1638" d="M839 1419Q1030 1419 1184 1327Q1351 1228 1440 1070T1530 704Q1530 382 1330 179T820 -24Q474 -24 272 220Q107 419 107 696Q107 902 200 1065T464 1324T839 1419ZM839 1311Q683 1311 571 1240T392 1029T324
686Q324 491 390 356T569 148T821 76Q960 76 1067 146T1244 368T1314 705Q1314 893 1244 1049Q1184 1183 1085 1247T839 1311Z" />
<glyph unicode="P" glyph-name="P" horiz-adv-x="1270" d="M92 1395H643Q894 1395 989 1363Q1108 1325 1185 1233T1263 999Q1263 878 1204 790Q1133 684 1032 640T712 595H457V237Q457 157 466 136Q478 107 499 96T584 84H632V0H92V84H125Q194 84 219 95T255 131T267
224V1178Q267 1244 257 1266T222 1299T125 1310H92V1395ZM457 1286V701H672Q835 701 900 730T1009 830T1052 998Q1052 1103 1002 1173T866 1269Q806 1286 632 1286H457Z" />
<glyph unicode="Q" glyph-name="Q" horiz-adv-x="1638" d="M916 -19Q914 -41 914 -56Q914 -137 975 -190T1134 -244Q1191 -244 1249 -227T1381 -166L1435 -246Q1237 -366 1083 -366Q978 -366 882 -322Q810 -288 769 -221T727 -71Q727 -55 730 -19Q458 8 283 208T107
697Q107 903 200 1066T462 1324T835 1419Q1029 1419 1183 1328Q1350 1229 1440 1071T1530 703Q1530 408 1360 212T916 -19ZM839 1311Q683 1311 571 1240T392 1029T324 686Q324 491 390 356T569 148T821 76Q960 76 1067 146T1244 368T1314 705Q1314 893 1244 1049Q1184
1183 1085 1247T839 1311Z" />
<glyph unicode="R" glyph-name="R" horiz-adv-x="1475" d="M99 1395H819Q1024 1395 1129 1353T1290 1230T1347 1043Q1347 934 1292 850T1134 717T859 666L1227 216Q1272 160 1286 147Q1321 116 1359 100T1446 84H1471V0H1153L641 666H462V236Q462 164 467 146Q478
112 502 98T598 84H634V0H99V84H147Q201 84 219 91T252 115T273 160Q275 171 276 261V1175Q276 1235 264 1261T231 1298T156 1310H99V1395ZM462 1286V761H749Q895 761 954 779Q1038 803 1086 867T1135 1030Q1135 1114 1100 1171T1005 1257T824 1286H462Z" />
<glyph unicode="S" glyph-name="S" horiz-adv-x="1352" d="M1036 1395H1108L1215 965L1123 937Q1035 1118 889 1222Q769 1309 623 1309Q535 1309 465 1278T360 1196T325 1094Q325 1047 352 1003T434 926T614 855L875 778Q923 764 1014 724T1157 640T1237 531T1266
391Q1266 225 1121 101T744 -24Q625 -24 531 10T328 133L282 0H212L119 501L212 520Q263 381 347 284T534 138T743 88Q887 88 995 175Q1085 248 1085 347Q1085 438 1020 496Q954 554 784 604L534 676Q324 737 238 832Q152 927 152 1050Q152 1146 208 1227T380 1364T634
1419Q750 1419 856 1379Q931 1351 994 1299L1036 1395Z" />
<glyph unicode="T" glyph-name="T" horiz-adv-x="1270" d="M125 1442H195L205 1395H1061L1069 1442H1142L1289 1032L1199 1000Q1134 1164 1045 1230T817 1297Q759 1297 748 1293T733 1277T728 1207V239Q728 170 735 146T757 109T795 91T905 84V0H367V84Q456 85
476 90Q511 100 526 128T541 231V1220Q541 1266 537 1276T520 1291T468 1297Q359 1297 294 1269T170 1174T71 1000L-19 1032L125 1442Z" />
<glyph unicode="U" glyph-name="U" horiz-adv-x="1597" d="M78 1395H617V1310H581Q515 1310 487 1297Q465 1287 454 1263T443 1167V539Q443 371 483 290T618 154T826 99Q940 99 1042 158T1185 298T1226 554V1158Q1226 1224 1213 1253T1174 1296T1091 1310H1052V1395H1519V1310H1487Q1408
1310 1379 1280T1349 1167V524Q1349 348 1283 231T1091 45T798 -24Q640 -24 509 46T317 220T255 483V1167Q255 1233 243 1259T208 1298T128 1310H78V1395Z" />
<glyph unicode="V" glyph-name="V" horiz-adv-x="1434" d="M2 1395H511V1310H472Q418 1310 404 1306Q384 1300 374 1287T363 1256Q363 1229 383 1178L753 212L1127 1178Q1147 1229 1147 1255Q1147 1284 1127 1297T1045 1310H999V1395H1432V1310Q1376 1311 1350
1300T1306 1269Q1285 1242 1259 1178L785 0H643L174 1178Q151 1236 142 1250Q128 1271 111 1284T69 1303T2 1310V1395Z" />
<glyph unicode="W" glyph-name="W" horiz-adv-x="1966" d="M26 1395H526V1310H473Q421 1310 402 1300Q373 1284 373 1252Q373 1229 389 1179L675 249L923 1013L865 1198Q844 1264 801 1293Q775 1310 710 1310V1395H1206V1310H1159Q1098 1310 1077 1295T1056 1254Q1056
1232 1072 1179L1359 243L1648 1179Q1663 1228 1663 1253Q1663 1282 1643 1296T1564 1310H1514V1395H1940V1310Q1886 1311 1860 1300T1816 1267T1779 1179L1394 0H1249L980 834L710 0H566L188 1179Q161 1264 121 1291Q91 1310 26 1310V1395Z" />
<glyph unicode="X" glyph-name="X" horiz-adv-x="1475" d="M66 1395H599V1310H557Q497 1310 481 1302T465 1276Q465 1264 471 1252T507 1200L768 844L1053 1200Q1093 1250 1093 1276Q1093 1292 1078 1301T1012 1310H961V1395H1414V1310Q1333 1310 1298 1293T1199
1200L835 763L1264 200Q1305 146 1333 124T1387 93T1473 84V0H938V84H980Q1042 84 1058 92T1075 120Q1075 131 1069 143Q1067 148 1029 200L710 626L361 187Q329 148 325 139Q319 128 319 118Q319 99 342 90Q357 84 413 84H455V0H3V84Q65 84 93 92T151 123T225
200L646 707L272 1200Q216 1274 181 1292T66 1310V1395Z" />
<glyph unicode="Y" glyph-name="Y" horiz-adv-x="1311" d="M5 1395H527V1310H468Q414 1310 399 1300T383 1267Q383 1247 402 1213Q407 1205 415 1190L687 686L988 1209Q1006 1241 1009 1250T1013 1270Q1013 1284 1006 1293T982 1308Q972 1310 926 1310H874V1395H1305V1310Q1248
1311 1221 1303T1176 1279T1126 1209L748 579V228Q748 151 760 128T800 95T926 84V0H381V84H423Q490 84 512 96T548 135Q557 154 557 228V542L188 1198Q144 1277 115 1292T5 1310V1395Z" />
<glyph unicode="Z" glyph-name="Z" horiz-adv-x="1311" d="M245 1395H1216V1310L305 108H640Q868 108 987 184T1201 464L1293 433L1132 0H53V84L966 1287H676Q530 1287 445 1259T296 1172T162 985L76 1027L245 1395Z" />
<glyph unicode="[" glyph-name="bracketleft" horiz-adv-x="614" d="M208 1457H518V1362H353V-377H518V-473H208V1457Z" />
<glyph unicode="\" glyph-name="backslash" horiz-adv-x="1229" d="M392 1467L1059 -446H910L240 1467H392Z" />
<glyph unicode="]" glyph-name="bracketright" horiz-adv-x="614" d="M406 -473H96V-377H261V1362H96V1457H406V-473Z" />
<glyph unicode="^" glyph-name="asciicircum" horiz-adv-x="1229" d="M246 595H104L546 1419H681L1124 595H982L614 1257L246 595Z" />
<glyph unicode="_" glyph-name="underscore" horiz-adv-x="1024" d="M-12 -154H1036V-256H-12V-154Z" />
<glyph unicode="`" glyph-name="grave" horiz-adv-x="696" d="M557 1170L271 1230Q196 1246 168 1271T140 1334Q140 1368 160 1389T213 1411Q277 1411 372 1341L557 1205V1170Z" />
<glyph unicode="a" glyph-name="a" horiz-adv-x="1188" d="M793 579V688Q793 799 731 846T556 894Q500 894 458 881T391 844T353 790Q348 779 329 705Q306 615 236 615Q196 615 172 641T147 713Q147 779 196 842T345 947T583 989Q711 989 802 950T936 836Q966
785 966 650V265Q966 183 971 158Q982 115 1009 94T1081 72Q1127 72 1191 94V7Q1108 -17 1042 -17Q971 -17 923 3T843 61T803 153Q683 59 586 21T390 -17Q252 -17 166 58T80 234Q80 295 111 350T207 447T410 521T793 579ZM793 492Q561 458 506 445Q397 420 350
390T283 326T263 252Q263 213 285 177T349 119T436 98Q501 98 583 129T793 250V492Z" />
<glyph unicode="b" glyph-name="b" horiz-adv-x="1270" d="M57 1300V1383Q123 1388 184 1407T322 1467H395V857Q483 923 576 956T766 989Q878 989 973 929T1122 760T1177 501Q1177 267 1040 116Q913 -24 718 -24Q601 -24 509 25Q441 61 377 136L322 0H229V1300H57ZM395
758V373Q395 282 408 246T461 171T556 110T669 87Q758 87 831 134T946 273T988 494Q988 675 899 784Q828 874 700 874Q634 874 566 850T395 758Z" />
<glyph unicode="c" glyph-name="c" horiz-adv-x="1065" d="M958 279L1022 227Q834 -24 571 -24Q366 -24 225 122T84 485Q84 630 149 745T331 925T599 989Q771 989 886 905T1001 734Q1001 688 974 663T913 638Q895 638 878 647T843 676Q835 685 814 732Q787 790
772 810Q741 850 696 873T594 896Q509 896 437 849T322 711T279 492Q279 295 384 179Q475 79 601 79Q659 79 718 98T831 156Q870 183 958 279Z" />
<glyph unicode="d" glyph-name="d" horiz-adv-x="1270" d="M697 1298V1383Q765 1389 821 1406T963 1467H1038V254Q1038 170 1042 152Q1052 114 1076 99T1169 84H1212V0L865 -16V143Q765 52 678 14T502 -24Q321 -24 202 121T82 472Q82 618 145 739T313 925T541
989Q636 989 717 956T865 857V1298H697ZM865 242V620Q865 701 835 752T735 842T592 880Q505 880 432 833T317 696T275 479Q275 359 313 272T417 139T550 93Q617 93 702 131T865 242Z" />
<glyph unicode="e" glyph-name="e" horiz-adv-x="1065" d="M930 258L994 206Q921 119 853 68T723 -3T580 -24Q433 -24 330 36Q212 105 149 216T86 478Q86 636 147 748T317 924T571 989Q678 989 757 956T891 855T971 700Q985 649 987 568H280Q277 519 277 495Q277
369 321 271T437 126T602 79Q680 79 753 115T930 258ZM802 662Q787 754 760 798T682 868T568 894Q505 894 450 868T359 796T295 662H802Z" />
<glyph unicode="f" glyph-name="f" horiz-adv-x="655" d="M68 965H239V1115Q239 1270 341 1368T609 1467Q719 1467 780 1421T842 1321Q842 1285 818 1261T756 1236Q723 1236 699 1248T625 1308Q572 1358 524 1358Q491 1358 465 1338T424 1278T409 1156V965H597V863H409V214Q409
147 419 125T449 93T542 84H583V0H68V84H99Q178 84 199 94T230 126T239 229V863H68V965Z" />
<glyph unicode="g" glyph-name="g" horiz-adv-x="1106" d="M847 886Q892 939 938 964T1024 989Q1060 989 1084 968T1109 915Q1109 883 1087 861T1031 839Q1017 839 993 844Q965 851 946 851Q921 851 894 828Q956 753 956 652Q956 514 840 413T547 312Q449 312
350 353Q284 306 275 295Q261 278 261 259Q261 230 291 211Q329 186 441 169L730 126Q826 111 923 76T1063 -15T1107 -149Q1107 -281 985 -360Q830 -461 525 -461Q365 -461 265 -427T110 -331Q70 -286 70 -238Q70 -176 110 -117T298 51Q203 75 162 107Q110 148
110 200Q110 226 119 248T150 293T229 356Q265 381 280 393Q207 445 170 509T133 651Q133 778 231 873Q350 989 552 989Q642 989 709 967T847 886ZM543 896Q445 896 377 825T309 649Q309 579 340 523T427 434T545 401Q607 401 663 434T750 523T781 649Q781 759
715 827T543 896ZM384 28Q288 -54 257 -105T225 -203Q225 -243 256 -280T364 -342T555 -366Q691 -366 788 -337T928 -261Q959 -225 959 -176Q959 -134 934 -105T838 -55T706 -23L384 28Z" />
<glyph unicode="h" glyph-name="h" horiz-adv-x="1352" d="M74 1297V1383Q171 1396 225 1413T338 1467H416V806Q529 901 630 945T823 989Q957 989 1044 909Q1130 829 1130 714V223Q1130 150 1141 128T1180 95T1301 84V0H785V84H823Q896 84 919 95T952 133T963
243V584Q963 697 955 731Q940 789 893 824T773 859Q691 859 602 819T416 697V196Q416 140 426 121T459 93T551 84H592V0H74V84H105Q178 84 211 102Q229 111 237 137T245 281V1297H74Z" />
<glyph unicode="i" glyph-name="i" horiz-adv-x="614" d="M321 1440Q369 1440 403 1407T437 1325Q437 1277 403 1243T321 1209Q273 1209 239 1243T205 1325Q205 1373 239 1406T321 1440ZM66 821V904Q149 914 205 932T334 989H407V187Q407 145 419 124T452 94T531
84H578V0H66V84H107Q174 84 197 96T229 130T239 233V821H66Z" />
<glyph unicode="j" glyph-name="j" horiz-adv-x="614" d="M333 1440Q381 1440 415 1407T449 1325Q449 1277 415 1243T333 1209Q285 1209 252 1243T218 1325Q218 1373 251 1406T333 1440ZM78 821V903Q153 910 207 927T347 989H420V-100Q420 -218 375 -298T249 -425T56
-472Q-52 -472 -116 -427T-180 -334Q-180 -294 -155 -268T-88 -242Q-64 -242 -47 -251T3 -292Q51 -340 80 -356Q101 -368 127 -368Q189 -368 225 -308Q252 -264 252 -165V821H78Z" />
<glyph unicode="k" glyph-name="k" horiz-adv-x="1270" d="M60 1301V1383Q188 1393 325 1467H402V469L769 761Q857 831 857 854Q857 868 838 876Q826 881 779 881H726V965H1233V881Q1148 881 1097 864T979 795L689 574L1031 200Q1080 146 1111 124T1173 94T1270
84V0H738V84H779Q840 84 856 93T872 119Q872 135 842 165Q837 170 831 177L565 483L402 358V227Q402 154 413 131T447 96T538 84H575V0H60V84Q147 85 167 91Q202 102 217 130T233 238V1301H60Z" />
<glyph unicode="l" glyph-name="l" horiz-adv-x="614" d="M63 1301V1383Q199 1393 328 1467H402V236Q402 158 412 138Q425 110 450 97T546 84H578V0H63V84H115Q164 84 188 99T223 140T234 244V1301H63Z" />
<glyph unicode="m" glyph-name="m" horiz-adv-x="1925" d="M72 821V906Q147 913 203 930T331 989H405V821Q519 911 583 942Q681 989 770 989Q831 989 889 967T983 911T1044 821Q1149 914 1238 951T1420 989Q1508 989 1575 953T1673 861T1704 700V236Q1704 163
1707 151Q1712 132 1728 115T1766 91T1844 84H1876V0H1373V84Q1459 85 1484 96T1522 134T1535 236V677Q1535 761 1520 793T1467 846T1371 868Q1300 868 1222 830Q1118 778 1058 713V236Q1058 167 1064 146T1086 110T1122 90T1222 84V0H729V84H757Q816 84 840 98T879
141Q889 164 889 236V662Q889 756 875 789T819 845T723 868Q658 868 592 836Q494 789 412 713V199Q412 153 424 132T464 97T538 84H575V0H72V84H99Q168 84 190 95Q222 110 236 143Q244 161 244 236V821H72Z" />
<glyph unicode="n" glyph-name="n" horiz-adv-x="1352" d="M75 821V905Q164 915 208 929T335 989H407V799Q539 910 632 949T822 989Q904 989 967 962T1069 887T1122 780Q1130 743 1130 668V228Q1130 149 1141 127T1178 94T1301 84V0H786V84H814Q886 84 912 97T949
135T961 237V605Q961 719 943 763T880 834T767 862Q686 862 594 821T416 698V237Q416 159 427 133T465 94Q483 84 561 84H590V0H75V84H100Q174 84 201 96T239 141Q245 157 245 251V821H75Z" />
<glyph unicode="o" glyph-name="o" horiz-adv-x="1147" d="M579 989Q726 989 833 928T1003 750T1065 483Q1065 333 1002 216T829 38T567 -24Q325 -24 204 127T82 482Q82 631 145 746T321 925T579 989ZM571 892Q457 892 378 802Q278 690 278 476Q278 270 363 162Q440
66 572 66Q657 66 723 111T831 254T872 486Q872 616 828 719Q794 801 726 846T571 892Z" />
<glyph unicode="p" glyph-name="p" horiz-adv-x="1270" d="M64 822V904Q139 904 197 923T324 989H403V822Q528 921 611 955T777 989Q948 989 1068 855T1189 506Q1189 268 1052 116Q927 -24 730 -24Q632 -24 546 13Q484 39 403 106V-223Q403 -297 407 -310Q412
-329 427 -342T465 -359Q482 -362 579 -362V-446H64V-362H109Q178 -362 198 -352T229 -319Q235 -302 235 -215V822H64ZM403 719V375Q403 307 411 274Q423 223 457 182T551 112T676 83Q806 83 901 181T997 478Q997 664 918 765T731 867Q661 867 579 830T403 719Z"
/>
<glyph unicode="q" glyph-name="q" horiz-adv-x="1188" d="M916 965H1025V-215Q1025 -289 1034 -310Q1047 -338 1071 -350T1158 -362H1202V-446H685V-362H729Q787 -362 809 -351T842 -318T854 -237V119Q812 79 748 45T615 -9Q563 -24 504 -24Q387 -24 289 37T131
215T71 477Q71 679 190 825Q324 989 539 989Q632 989 705 958T874 837L916 965ZM854 217V593Q854 697 826 749T727 840T580 879Q495 879 422 832T306 694T263 480Q263 304 350 197T554 90Q617 90 689 118T854 217Z" />
<glyph unicode="r" glyph-name="r" horiz-adv-x="901" d="M72 822V904Q145 910 202 928T332 989H407V800Q478 887 572 938T741 989Q815 989 858 954T901 869Q901 833 873 806T804 778Q786 778 773 783T735 805Q680 841 643 841Q593 841 533 799Q457 745 414 693V232Q414
172 420 151T442 114T479 91T556 84H589V0H72V84H115Q176 84 195 95Q221 110 233 136T246 232V822H72Z" />
<glyph unicode="s" glyph-name="s" horiz-adv-x="1065" d="M751 965H821L911 659L821 629Q767 752 670 822T472 893Q395 893 347 856T299 769Q299 723 334 690Q368 656 487 613L682 544Q847 485 907 418Q966 350 966 264Q966 191 922 124T795 16T603 -24Q435 -24
315 72L294 0H223L98 327L189 363Q280 219 361 159Q474 74 605 74Q692 74 748 120T804 224Q804 271 769 310Q733 348 631 384L400 468Q251 522 193 586Q135 650 135 733Q135 834 229 911T470 989Q546 989 606 970T724 905L751 965Z" />
<glyph unicode="t" glyph-name="t" horiz-adv-x="778" d="M337 1305H408V965H705V865H408V262Q408 185 421 152T467 98T540 77Q635 77 750 162V65Q619 -24 485 -24Q409 -24 348 10T264 90T241 250V865H66V949Q150 968 201 1008T285 1112T337 1305Z" />
<glyph unicode="u" glyph-name="u" horiz-adv-x="1393" d="M20 965L399 980V336Q399 251 422 201T494 124T608 96Q688 96 789 139T992 267V733Q992 807 981 830T942 867T854 881H781V965L1160 980V234Q1160 162 1172 135T1207 96T1302 84H1333V0L1001 -17V168Q864
59 762 18T555 -24Q477 -24 420 -3T319 60T252 161T229 287V742Q229 803 218 827T182 866T112 881H20V965Z" />
<glyph unicode="v" glyph-name="v" horiz-adv-x="1065" d="M0 965H458V881H430Q373 881 359 877Q339 871 329 858T319 827Q319 802 341 746L569 177L790 746Q811 801 811 826Q811 852 791 866T719 881H671V965H1066V881Q1025 880 998 868T955 837T908 746L589
0H469L148 763Q128 810 104 840Q88 859 62 870T0 881V965Z" />
<glyph unicode="w" glyph-name="w" horiz-adv-x="1597" d="M-1 965H459V881H427Q368 881 349 872Q319 858 319 828Q319 800 342 738L549 191L751 699L733 746Q702 827 661 858Q634 878 581 881V965H1039V881H1000Q945 881 929 872Q901 856 901 821Q901 791 922
738L1129 191L1331 746Q1347 791 1348 797Q1351 808 1351 820Q1351 848 1329 864T1248 881H1211V965H1599V881Q1556 879 1529 866T1486 832T1441 738L1149 0H1029L798 576L570 0H451L156 738Q128 809 110 832T66 868T-1 881V965Z" />
<glyph unicode="x" glyph-name="x" horiz-adv-x="1147" d="M37 965H540V881H505Q475 881 450 874Q435 870 426 859T416 837Q416 814 454 768L597 588L764 768Q810 818 810 843Q810 861 794 871T725 881H687V965H1114V881Q1051 878 1006 855T898 768L669 530L954
205L965 191Q1007 137 1059 104Q1088 85 1149 84V0H658V84H700Q748 84 761 90Q783 100 783 124Q783 146 735 205L553 428L350 205L330 181L319 169Q294 142 294 121Q294 102 309 93T379 84H419V0H-2V84Q47 85 75 94T129 124Q174 160 194 181L487 482L238 768Q191
821 164 842T110 872T37 881V965Z" />
<glyph unicode="y" glyph-name="y" horiz-adv-x="1106" d="M-11 965H475V881H435Q378 881 367 878Q354 874 345 862T336 830Q336 803 363 739L595 194L810 715Q848 807 848 837Q848 860 831 870T754 881H707V965H1116V881H1092Q1032 881 1014 873T979 841T925
729L558 -126Q518 -218 469 -296T346 -418T183 -461Q80 -461 18 -414Q-35 -374 -35 -314Q-35 -277 -12 -253T42 -228Q66 -228 87 -238Q100 -243 141 -280Q191 -324 211 -334T252 -344Q293 -344 333 -316T401 -237Q441 -164 467 -100L508 0L178 739Q143 817 119
844T71 877Q58 881 -11 881V965Z" />
<glyph unicode="z" glyph-name="z" horiz-adv-x="983" d="M205 965H934V881L260 93H426Q621 93 706 140Q823 206 880 363L969 331L846 0H36V84L710 865H513Q376 865 300 816T158 630L72 671L205 965Z" />
<glyph unicode="{" glyph-name="braceleft" horiz-adv-x="573" d="M637 -407V-442Q539 -428 467 -386Q370 -330 316 -242T261 -53Q261 14 282 103Q307 207 307 256Q307 332 246 394T79 470V511Q184 525 245 586T307 726Q307 774 282 878Q261 967 261 1035Q261
1137 319 1227T474 1371Q543 1410 637 1422V1387Q521 1359 466 1297T411 1150Q411 1098 435 993Q456 902 456 837Q456 733 381 639T161 493Q302 441 379 345T456 144Q456 78 435 -12Q411 -117 411 -170Q411 -252 466 -315T637 -407Z" />
<glyph unicode="|" glyph-name="bar" horiz-adv-x="1229" d="M543 1467H689V-446H543V1467Z" />
<glyph unicode="}" glyph-name="braceright" horiz-adv-x="573" d="M-27 1387V1422Q70 1409 143 1367Q240 1311 294 1223T349 1034Q349 966 328 878Q303 774 303 725Q303 649 364 587T531 511V470Q426 456 365 395T303 255Q303 207 328 103Q349 14 349 -54Q349
-156 291 -246T136 -390Q67 -429 -27 -442V-407Q89 -378 144 -316T199 -169Q199 -117 175 -12Q153 78 153 144Q153 248 229 342T449 488Q308 540 231 636T153 837Q153 902 175 993Q199 1098 199 1151Q199 1233 144 1296T-27 1387Z" />
<glyph unicode="~" glyph-name="asciitilde" horiz-adv-x="1229" d="M981 841L1068 744Q1037 666 998 622T910 554T808 531Q768 531 727 546Q707 553 605 605L472 669Q447 679 421 679Q373 679 344 645T255 499L160 597Q200 677 240 719T327 784T420 806Q455 806
495 793T641 726Q737 677 761 668T802 658Q849 658 890 699Q918 727 981 841Z" />
</font>
</defs>
</svg>
