<?xml version="1.0" standalone="no"?> <!DOCTYPE svg PUBLIC "-//W3C//DTD SVG 1.0//EN" "http://www.w3.org/TR/2001/REC-SVG-20010904/DTD/svg10.dtd" > <svg xmlns="http://www.w3.org/2000/svg" width="100%" height="100%">
<defs >
<font horiz-adv-x="1229" ><font-face
    font-family="Courier New"
    units-per-em="2048"
    panose-1="2 7 6 9 2 2 5 2 4 4"
    ascent="1705"
    descent="-615"
    alphabetic="0" />
<missing-glyph d="M103 0V1280H1127V0H103ZM135 32H1095V1248H135V32Z" />
<glyph unicode=" " glyph-name="space" />
<glyph unicode="!" glyph-name="exclam" d="M767 1093L710 475Q706 427 678 401T608 374Q566 374 538 400T506 475L448 1093Q444 1140 444 1155Q444 1233 491 1280T608 1328Q677 1328 724 1280T772 1159Q772 1144 767 1093ZM734 75Q734 31 701 1T610 -30Q552 -30
519 0T486 75Q486 118 518 148T610 179Q669 179 701 149T734 75Z" />
<glyph unicode="&quot;" glyph-name="quotedbl" d="M264 1237H528L463 747Q458 709 442 694T399 679Q372 679 356 694T335 746L264 1237ZM691 1237H955L890 747Q885 709 869 694T826 679Q799 679 783 694T762 746L691 1237Z" />
<glyph unicode="#" glyph-name="numbersign" d="M917 923H965Q1039 923 1070 895T1102 820Q1102 775 1071 747T966 718H902L887 494H923Q997 494 1028 466T1060 391Q1060 346 1029 318T924 289H872L848 -63Q847 -71 833 -134Q823 -158 797 -175T742 -192Q701 -192
672 -162T642 -85Q642 -77 644 -47L668 289H515L491 -62Q487 -115 483 -125Q472 -155 446 -173T387 -192Q343 -192 314 -162T284 -85Q284 -74 286 -48L309 289H259Q185 289 154 317T122 392Q122 437 153 465T259 494H324L339 718H302Q228 718 197 746T165 821Q165
866 196 894T301 923H354L378 1275Q382 1327 387 1340Q398 1369 424 1387T483 1405Q525 1405 555 1375T585 1295Q585 1283 583 1260L560 923H712L736 1275Q740 1347 768 1376T841 1405Q884 1405 914 1375T944 1300Q944 1290 943 1283L940 1260L917 923ZM697 718H545L530
494H682L697 718Z" />
<glyph unicode="$" glyph-name="dollar" d="M717 1231Q788 1222 856 1191Q872 1200 886 1204T915 1209Q961 1209 989 1178T1018 1072V1006Q1018 932 990 901T916 869Q875 869 847 896T813 975Q741 1032 633 1032Q520 1032 468 992T415 902Q415 864 447 834Q479
804 581 783L717 754Q889 719 964 649Q1062 560 1062 414Q1062 286 973 187T717 55V-119Q717 -193 689 -224T614 -256Q569 -256 541 -225T512 -119V55Q432 72 352 108Q309 72 272 72Q223 72 195 103T166 208V337Q166 411 194 442T269 474Q306 474 331 454T367 393T398
330Q428 298 489 277T616 255Q730 255 806 314Q857 353 857 415Q857 466 823 499Q789 531 680 553L526 584Q363 616 287 701Q211 786 211 905Q211 1023 293 1115T512 1231V1287Q512 1360 540 1391T615 1423Q660 1423 688 1392T717 1287V1231Z" />
<glyph unicode="%" glyph-name="percent" d="M772 995Q772 875 688 791T483 706Q363 706 278 790T193 995Q193 1115 278 1200T483 1285Q603 1285 687 1201T772 995ZM646 995Q646 1063 598 1110T483 1158Q415 1158 368 1111T320 995Q320 928 368 880T483 832Q550
832 598 880T646 995ZM1014 690L258 445Q230 436 217 436Q194 436 176 455T158 503Q158 524 172 541Q182 554 219 566L975 811Q1003 820 1016 820Q1040 820 1057 801T1075 754Q1075 732 1061 715Q1051 702 1014 690ZM1032 259Q1032 139 947 55T742 -30Q622 -30
537 55T452 259Q452 379 537 464T742 549Q862 549 947 465T1032 259ZM905 259Q905 327 857 374T742 422Q675 422 627 375T579 259Q579 192 627 145T742 97Q809 97 857 144T905 259Z" />
<glyph unicode="&amp;" glyph-name="ampersand" d="M828 407L878 581H983Q1047 581 1071 566Q1119 535 1119 477Q1119 435 1094 407T1032 376Q1007 269 969 205Q1050 205 1073 190Q1122 160 1122 102Q1122 57 1091 29T985 0H863L839 32Q794 0 753 -12Q692 -30
605 -30Q424 -30 325 62T225 297Q225 394 274 482T426 631Q382 704 369 744T355 831Q355 955 449 1048T672 1142Q706 1142 742 1134T816 1107Q852 1123 870 1123Q912 1123 942 1093T972 1020Q972 985 956 963T889 913L803 867Q754 911 724 926Q701 937 671 937Q624
937 592 906T560 833Q560 798 619 712L828 407ZM544 459Q430 406 430 298Q430 241 469 208T605 175Q667 175 719 205L544 459Z" />
<glyph unicode="&apos;" glyph-name="quotesingle" d="M481 1252H745L680 724Q675 682 659 667T615 651Q590 651 574 666T552 723L481 1252Z" />
<glyph unicode="(" glyph-name="parenleft" d="M541 498Q541 673 599 852Q642 984 732 1146Q797 1262 828 1288T897 1315Q941 1315 971 1285T1001 1213Q1001 1184 977 1144Q869 967 820 812T770 498Q770 338 819 183T977 -149Q1001 -188 1001 -218Q1001 -260 971
-290T897 -320Q860 -320 832 -296Q792 -261 726 -139Q631 38 596 153Q541 329 541 498Z" />
<glyph unicode=")" glyph-name="parenright" d="M702 498Q702 323 644 143Q601 11 511 -150Q446 -266 415 -293T346 -320Q302 -320 272 -290T242 -218Q242 -188 266 -149Q374 28 423 183T473 498Q473 657 424 812T266 1144Q242 1184 242 1213Q242 1255 272 1285T346
1315Q383 1315 411 1291Q451 1257 517 1134Q612 957 647 843Q702 666 702 498Z" />
<glyph unicode="*" glyph-name="asterisk" d="M447 776L270 833Q207 853 190 876Q166 905 166 941Q166 983 195 1013T262 1044Q286 1044 333 1028L510 971V1157Q510 1231 538 1262T613 1294Q659 1294 687 1263T715 1157V971L892 1028Q940 1044 962 1044Q1000 1044
1029 1014T1059 942Q1059 905 1039 880T956 833L779 776L888 625Q928 570 928 538Q928 495 898 465T826 435Q795 435 775 448T722 505L613 655L503 505Q472 461 451 448T400 434Q358 434 328 464T297 539Q297 570 337 625L447 776Z" />
<glyph unicode="+" glyph-name="plus" d="M717 480V137Q717 63 689 32T615 0Q569 0 541 31T512 137V480H219Q145 480 114 508T82 583Q82 629 113 657T219 685H512V1027Q512 1100 540 1132T615 1164Q661 1164 689 1133T718 1027L717 685H1010Q1084 685 1115 657T1147
583Q1147 537 1116 509T1010 480H717Z" />
<glyph unicode="," glyph-name="comma" d="M566 276H840L545 -280Q519 -329 480 -329Q454 -329 436 -312T417 -274Q417 -259 424 -233L566 276Z" />
<glyph unicode="-" glyph-name="hyphen" d="M1044 488H188V675H1044V488Z" />
<glyph unicode="." glyph-name="period" d="M771 103Q771 45 730 6T617 -33Q545 -33 504 6T463 103Q463 161 504 200T617 239Q689 239 730 200T771 103Z" />
<glyph unicode="/" glyph-name="slash" d="M1037 1270L380 -146Q355 -199 335 -215Q309 -236 272 -236Q230 -236 200 -206T169 -138Q169 -111 193 -59L852 1356Q877 1409 896 1425Q923 1446 959 1446Q1001 1446 1031 1417T1061 1349Q1061 1322 1037 1270Z" />
<glyph unicode="0" glyph-name="zero" d="M1062 761V536Q1062 336 947 153T616 -30Q492 -30 407 24T245 225T168 536V761Q168 960 283 1143T613 1327Q736 1327 821 1273T984 1073T1062 761ZM856 761Q856 928 763 1053Q710 1122 614 1122Q521 1122 462 1046Q373
931 373 761V536Q373 368 467 244Q519 175 616 175Q708 175 767 251Q856 366 856 536V761Z" />
<glyph unicode="1" glyph-name="one" d="M719 1327V205H926Q1000 205 1031 177T1063 102Q1063 57 1032 29T926 0H307Q233 0 202 28T170 103Q170 148 201 176T307 205H514V1060L331 1012Q287 1000 265 1000Q226 1000 198 1031T169 1107Q169 1148 190 1171T278 1213L719
1327Z" />
<glyph unicode="2" glyph-name="two" d="M423 205H872Q909 235 942 235Q989 235 1016 204T1044 98V0H110V217Q664 674 779 805Q837 872 837 932Q837 1007 772 1064T597 1122Q487 1122 414 1058Q376 1024 353 957Q339 915 315 897T254 879Q212 879 182 909T151
979Q151 1039 206 1129T368 1273T600 1327Q794 1327 918 1210T1042 925Q1042 840 1007 768T836 567Q730 466 423 205Z" />
<glyph unicode="3" glyph-name="three" d="M907 685Q998 623 1043 542T1088 359Q1088 250 1029 158T856 18T560 -30Q322 -30 202 44Q135 86 135 144Q135 188 164 218T236 249Q265 249 296 229Q340 199 379 189Q439 175 544 175Q723 175 803 221T883 353Q883 416
837 474T712 565Q667 583 560 590Q509 593 482 621T454 692Q454 736 484 766T560 796Q662 796 669 797Q709 801 749 823T813 883T838 963Q838 1028 781 1075T608 1123Q460 1123 382 1037Q359 1012 345 1005Q324 994 298 994Q256 994 226 1024T196 1098Q196 1167
288 1232Q422 1327 623 1327Q813 1327 928 1219T1043 959Q1043 880 1009 812T907 685Z" />
<glyph unicode="4" glyph-name="four" d="M915 1294V492Q980 492 1011 464T1042 390Q1042 345 1011 316T915 287V205Q980 205 1011 176T1042 102Q1042 57 1011 29T905 0H630Q556 0 525 28T493 103Q493 148 524 176T630 205H710V287H153V458L644 1294H915ZM710
492V996L413 492H710Z" />
<glyph unicode="5" glyph-name="five" d="M442 1089V845Q556 881 649 881Q838 881 963 752T1088 419Q1088 209 962 90T574 -30Q344 -30 210 57Q132 107 132 172Q132 213 162 243T235 274Q270 274 311 241T397 194Q461 175 561 175Q747 175 815 234T883 417Q883
538 818 607T649 676Q538 676 396 604Q364 587 340 587Q296 587 267 619T237 702V1294H864Q938 1294 969 1266T1001 1191Q1001 1146 970 1118T864 1089H442Z" />
<glyph unicode="6" glyph-name="six" d="M422 700Q496 762 563 790T706 819Q867 819 988 691T1109 370Q1109 191 997 81T691 -30Q530 -30 426 45T269 276T216 624Q216 854 321 1006T568 1243T868 1327Q993 1327 1062 1278Q1107 1245 1107 1194Q1107 1149 1077
1119T1005 1088Q981 1088 936 1112Q909 1126 884 1126Q786 1126 681 1071T499 900Q446 820 422 700ZM452 383Q484 263 538 219T694 175Q795 175 849 228T904 372Q904 476 842 545T701 614Q639 614 569 553T452 383Z" />
<glyph unicode="7" glyph-name="seven" d="M826 1089H357Q353 1029 326 1003T255 976Q209 976 181 1007T152 1112V1294H1042V1089L710 101Q689 39 664 19T602 -2Q559 -2 529 28T498 97Q498 119 514 167L826 1089Z" />
<glyph unicode="8" glyph-name="eight" d="M905 655Q984 594 1023 517T1063 346Q1063 243 1013 157T854 20T614 -30Q482 -30 376 20T220 157T169 346Q169 439 208 516T327 655Q258 719 223 791T188 943Q188 1100 308 1213T616 1327Q804 1327 924 1214T1044 943Q1044
862 1010 790T905 655ZM834 939Q834 1015 775 1068T614 1122Q512 1122 453 1069T393 939Q393 862 452 809T614 755Q715 755 774 808T834 939ZM858 336Q858 417 789 482T616 548Q513 548 444 483T374 334Q374 270 434 223T616 175Q739 175 798 222T858 336Z" />
<glyph unicode="9" glyph-name="nine" d="M903 538Q826 472 762 445T627 417Q462 417 339 549T215 877Q215 1030 300 1155Q416 1327 627 1327Q778 1327 891 1237T1057 976T1110 620Q1110 306 867 116Q679 -30 455 -30Q331 -30 263 20Q217 53 217 107Q217 151 246
180T319 210Q343 210 373 195Q412 175 455 175Q610 175 741 280T903 538ZM874 861Q841 1003 777 1062T629 1122Q542 1122 481 1056T420 879Q420 764 481 693T622 622Q761 622 874 861Z" />
<glyph unicode=":" glyph-name="colon" d="M769 771Q769 713 728 674T615 635Q543 635 502 674T461 771Q461 829 502 868T615 907Q687 907 728 868T769 771ZM771 100Q771 42 730 3T617 -36Q545 -36 504 3T463 100Q463 158 504 197T617 236Q689 236 730 197T771 100Z" />
<glyph unicode=";" glyph-name="semicolon" d="M864 766Q864 708 823 669T710 630Q639 630 598 669T557 767Q557 824 597 863T710 903Q782 903 823 864T864 766ZM547 299H808L519 -170Q491 -217 464 -217Q439 -217 422 -202T404 -170Q404 -157 411 -135L547 299Z" />
<glyph unicode="&lt;" glyph-name="less" d="M400 584L1064 216Q1114 188 1130 166T1147 110Q1147 67 1116 36T1044 4Q1017 4 963 34L-26 584L963 1134Q1017 1163 1043 1163Q1085 1163 1116 1132T1147 1058Q1147 1024 1131 1002T1064 952L400 584Z" />
<glyph unicode="=" glyph-name="equal" d="M1054 674H178Q104 674 73 702T41 777Q41 822 72 850T178 879H1054Q1128 879 1159 851T1191 776Q1191 731 1160 703T1054 674ZM1054 288H178Q104 288 73 316T41 390Q41 436 72 464T178 493H1054Q1128 493 1159 465T1191
390Q1191 344 1160 316T1054 288Z" />
<glyph unicode="&gt;" glyph-name="greater" d="M831 584L167 952Q117 980 101 1002T84 1058Q84 1101 115 1132T188 1163Q214 1163 268 1134L1257 584L268 34Q214 4 188 4Q146 4 115 35T84 110Q84 144 100 166T167 216L831 584Z" />
<glyph unicode="?" glyph-name="question" d="M719 473Q713 415 686 389T616 362Q571 362 543 393T514 499V614Q757 707 807 757T857 859Q857 932 799 985T633 1038Q520 1038 415 986V956Q415 883 387 852T312 820Q267 820 239 851T210 956V1121Q367 1195 454
1219T634 1243Q828 1243 945 1131T1062 850Q1062 730 992 646T719 473ZM762 77Q762 30 729 1T617 -29Q539 -29 506 0T472 77Q472 124 505 153T617 183Q695 183 728 154T762 77Z" />
<glyph unicode="@" glyph-name="at" d="M824 894V957Q824 1056 767 1116T619 1176Q547 1176 484 1129T388 1006Q331 873 331 740V436Q331 205 435 69Q503 -20 625 -20Q690 -20 744 -3T829 44T884 74Q917 74 939 52T961 -4Q961 -54 892 -102Q792 -170 619 -170Q487
-170 401 -110Q290 -32 235 120T180 422V751Q180 991 299 1159T616 1327Q705 1327 784 1290T919 1161T975 957V410Q1019 390 1019 343Q1019 308 995 287T914 265H824V271Q777 264 755 264Q635 264 546 353T456 562Q456 690 554 786T824 894ZM824 739Q718 729 662
678T606 560Q606 503 652 461T775 419Q790 419 824 422V739Z" />
<glyph unicode="A" glyph-name="A" d="M865 330H367L317 205H367Q441 205 472 177T504 102Q504 57 473 29T367 0H91Q17 0 -14 28T-46 103Q-46 149 -13 178T96 205L418 1007H284Q210 1007 179 1035T147 1110Q147 1156 178 1184T284 1213L727 1212L1135 205Q1207
205 1230 189Q1276 156 1276 102Q1276 57 1245 29T1140 0H864Q790 0 759 28T727 103Q727 148 758 176T864 205H914L865 330ZM780 535L615 941L449 535H780Z" />
<glyph unicode="B" glyph-name="B" d="M196 205V1007H164Q90 1007 59 1035T27 1110Q27 1156 58 1184T164 1213H678Q862 1213 974 1111T1086 867Q1086 800 1060 741T981 632Q1078 574 1126 497T1175 321Q1175 243 1140 176Q1114 125 1076 95Q1025 53 951 27T766
0H164Q90 0 59 28T27 103Q27 148 59 176T164 205H196ZM401 709H626Q747 709 827 770Q881 811 881 872Q881 926 830 966T668 1007H401V709ZM401 205H755Q880 205 931 242Q970 270 970 322Q970 384 893 444T672 504H401V205Z" />
<glyph unicode="C" glyph-name="C" d="M936 1160Q955 1186 977 1199T1026 1212Q1071 1212 1099 1181T1128 1076V902Q1128 828 1100 797T1026 765Q985 765 960 788Q935 811 923 874Q916 916 895 939Q854 984 781 1011T633 1038Q541 1038 464 998T328 868T269 654V521Q269
373 376 274T675 175Q789 175 868 206Q914 224 966 277Q998 309 1016 318T1057 328Q1098 328 1129 297T1160 224Q1160 182 1118 134Q1057 64 961 24Q832 -30 676 -30Q494 -30 348 45Q230 105 147 234T64 517V656Q64 816 138 954T345 1168T625 1243Q714 1243 791
1223T936 1160Z" />
<glyph unicode="D" glyph-name="D" d="M156 205V1007Q91 1008 60 1036T29 1110Q29 1156 60 1184T166 1213L595 1212Q695 1212 790 1175T944 1081Q988 1038 1035 963T1107 814T1131 633V535Q1131 405 1087 305T972 141T837 47Q737 0 578 0H166Q92 0 61 28T29 103Q29
148 60 177T156 205ZM361 205H579Q701 205 763 240Q844 286 885 357T926 541V638Q926 735 889 808Q831 922 759 964T577 1007H361V205Z" />
<glyph unicode="E" glyph-name="E" d="M404 506V205H927V316Q927 390 955 421T1030 453Q1075 453 1103 422T1132 316V0H167Q93 0 62 28T30 103Q30 148 62 176T167 205H199V1007H167Q93 1007 62 1035T30 1110Q30 1156 61 1184T167 1213L1087 1212V900Q1087 827
1059 796T985 764Q939 764 911 795T882 900V1007H404V711H584Q584 791 599 814Q630 863 687 863Q732 863 760 832T789 726V490Q789 423 773 400Q741 353 687 353Q630 353 599 402Q584 425 584 506H404Z" />
<glyph unicode="F" glyph-name="F" d="M474 505V205H684Q758 205 789 177T821 102Q821 57 790 29T684 0H237Q163 0 132 28T100 103Q100 148 132 176T237 205H269V1007H237Q163 1007 132 1035T100 1110Q100 1156 131 1184T237 1213L1202 1212V899Q1202 826 1174
795T1099 763Q1054 763 1026 794T997 899V1007H474V710H654Q654 790 669 813Q700 862 757 862Q802 862 830 831T859 725V489Q859 415 831 384T756 352Q700 352 669 401Q654 424 654 505H474Z" />
<glyph unicode="G" glyph-name="G" d="M1131 375V100Q992 25 895 -2T684 -30Q527 -30 393 17Q288 53 228 108T116 270T65 511V659Q65 864 190 1025Q358 1243 647 1243Q731 1243 806 1226T950 1175Q991 1212 1030 1212Q1075 1212 1103 1181T1131 1076V943Q1131
869 1103 838T1029 806Q993 806 967 828Q947 843 934 894T903 964Q876 993 808 1015T654 1038Q532 1038 442 988Q378 951 324 859T270 659V511Q270 346 365 261T669 175Q810 175 926 228V375H717Q643 375 612 403T580 478Q580 524 611 552T717 581L1081 580Q1155
580 1186 552T1218 478Q1218 442 1197 415T1131 375Z" />
<glyph unicode="H" glyph-name="H" d="M839 502H401V205H433Q507 205 538 177T570 102Q570 57 539 29T433 0H182Q108 0 77 28T45 103Q45 159 94 190Q118 206 196 205V1007Q142 1012 115 1040T87 1110Q87 1156 118 1184T224 1213L433 1212Q507 1212 538 1184T570
1110Q570 1064 539 1036T433 1007H401V707H839V1007H807Q733 1007 702 1035T670 1110Q670 1156 701 1184T807 1213L1016 1212Q1090 1212 1121 1184T1153 1110Q1153 1068 1126 1040T1044 1007V205Q1123 205 1146 190Q1195 159 1195 102Q1195 57 1164 29T1058 0H807Q733
0 702 28T670 103Q670 148 702 176T807 205H839V502Z" />
<glyph unicode="I" glyph-name="I" d="M717 1007V205H924Q998 205 1029 177T1061 102Q1061 57 1030 29T924 0H305Q231 0 200 28T168 103Q168 148 199 176T305 205H512V1007H305Q231 1007 200 1035T168 1110Q168 1156 199 1184T305 1213L924 1212Q998 1212 1029
1184T1061 1110Q1061 1064 1030 1036T924 1007H717Z" />
<glyph unicode="J" glyph-name="J" d="M1000 1007V387Q1000 270 961 201Q901 94 788 32T549 -30Q388 -30 110 106V443Q110 517 138 548T213 580Q258 580 286 549T315 443V242Q456 175 556 175Q609 175 666 199T752 258T790 325Q795 343 795 411V1007H546Q472 1007
441 1035T409 1110Q409 1156 440 1184T546 1213L1120 1212Q1194 1212 1225 1184T1257 1110Q1257 1064 1226 1036T1120 1007H1000Z" />
<glyph unicode="K" glyph-name="K" d="M401 432V205H475Q549 205 580 177T612 102Q612 57 581 29T475 0H164Q90 0 59 28T27 103Q27 148 59 176T164 205H196V1007H164Q90 1007 59 1035T27 1110Q27 1156 58 1184T164 1213L475 1212Q549 1212 580 1184T612 1110Q612
1064 581 1036T475 1007H401V703L765 1016Q733 1039 721 1059T709 1108Q709 1155 740 1184T846 1213L1055 1212Q1129 1212 1160 1184T1192 1110Q1192 1065 1161 1036T1062 1007L694 685Q797 626 887 505T1048 205H1103Q1176 205 1207 177T1239 102Q1239 57 1208
29T1103 0H917Q853 153 777 292Q715 405 660 456T527 539L401 432Z" />
<glyph unicode="L" glyph-name="L" d="M529 1007V205H971V399Q971 473 999 504T1074 536Q1119 536 1147 505T1176 399V0H205Q131 0 100 28T68 103Q68 148 99 176T205 205H324V1007H205Q131 1007 100 1035T68 1110Q68 1156 99 1184T205 1213L649 1212Q723 1212
754 1184T786 1110Q786 1064 755 1036T649 1007H529Z" />
<glyph unicode="M" glyph-name="M" d="M294 816V205H368Q442 205 473 177T505 102Q505 57 474 29T368 0H99Q25 0 -6 28T-38 103Q-38 148 -7 176T89 205V1007Q35 1012 8 1040T-20 1110Q-20 1156 11 1184T117 1213L342 1212L621 595L895 1213L1122 1212Q1196 1212
1227 1184T1259 1110Q1259 1068 1231 1040T1150 1007V205Q1215 205 1246 176T1277 102Q1277 57 1246 29T1140 0H870Q797 0 766 28T734 103Q734 148 765 176T870 205H945V816L710 288H532L294 816Z" />
<glyph unicode="N" glyph-name="N" d="M358 825V205H432Q506 205 537 177T569 102Q569 57 538 29T432 0H163Q89 0 58 28T26 103Q26 147 57 176T153 205V1007H121Q47 1007 16 1035T-16 1110Q-16 1156 15 1184T121 1213L358 1212L882 390V1007H808Q734 1007 703
1035T671 1110Q671 1156 702 1184T808 1213L1077 1212Q1151 1212 1182 1184T1214 1110Q1214 1065 1183 1036T1088 1007V0H885L358 825Z" />
<glyph unicode="O" glyph-name="O" d="M1190 606Q1190 333 1017 152T615 -30Q410 -30 245 121Q41 308 41 606Q41 904 245 1092Q410 1243 615 1243Q843 1243 1016 1062T1190 606ZM985 606Q985 793 872 915T615 1038Q472 1038 359 915T246 606Q246 420 359 298T615
175Q759 175 872 297T985 606Z" />
<glyph unicode="P" glyph-name="P" d="M496 416V205H703Q777 205 808 177T840 102Q840 57 809 29T703 0H259Q185 0 154 28T122 103Q122 148 154 176T259 205H291V1007H259Q185 1007 154 1035T122 1110Q122 1156 153 1184T259 1213L731 1212Q939 1212 1060 1099T1182
822Q1182 732 1141 652Q1110 592 1038 534T890 446T690 416H496ZM496 621H686Q820 621 898 681T977 827Q977 899 914 953T732 1007H496V621Z" />
<glyph unicode="Q" glyph-name="Q" d="M662 -28L656 -37Q762 -37 855 -80Q893 -98 918 -98Q954 -98 1006 -64T1088 -30Q1131 -30 1160 -59T1190 -133Q1190 -186 1135 -225Q1026 -303 916 -303Q860 -303 803 -281Q711 -245 657 -245Q570 -245 392 -290Q355 -299
334 -299Q295 -299 266 -269T236 -192Q236 -152 276 -113L407 14Q245 84 143 242T40 606Q40 904 245 1092Q409 1243 614 1243Q820 1243 984 1092Q1189 904 1189 606Q1189 350 1034 172T662 -28ZM984 606Q984 793 871 915T614 1038Q471 1038 358 915T245 606Q245
420 358 298T614 175Q758 175 871 297T984 606Z" />
<glyph unicode="R" glyph-name="R" d="M403 463V205H477Q551 205 582 177T614 102Q614 57 583 29T477 0H166Q92 0 61 28T29 103Q29 148 61 176T166 205H198V1007H166Q92 1007 61 1035T29 1110Q29 1156 60 1184T166 1213L630 1212Q847 1212 966 1105T1086 843Q1086
747 1030 669T861 529Q926 472 1000 383Q1046 326 1124 205Q1202 205 1227 189Q1272 158 1272 102Q1272 57 1241 29T1136 0H1019Q770 385 606 463H403ZM403 668H563Q652 668 722 695Q816 731 848 771T881 850Q881 908 819 957T638 1007H403V668Z" />
<glyph unicode="S" glyph-name="S" d="M315 52Q288 20 272 11T231 2Q184 2 156 33T127 138V276Q127 350 155 381T231 413Q267 413 291 394T329 331T356 270Q385 239 459 207T621 175Q758 175 846 239Q902 278 902 335Q902 373 875 406T787 462Q747 477 608 503Q440
534 354 578T218 702T168 875Q168 1022 291 1132T611 1243Q690 1243 757 1226T880 1172Q920 1211 960 1211Q1005 1211 1033 1180T1062 1075V921Q1062 847 1034 816T960 784Q922 784 894 807Q872 824 861 875T833 948Q804 986 746 1012T612 1038Q501 1038 437 987T372
879Q372 841 398 806T476 750Q510 736 667 705T909 637T1050 521T1106 333Q1106 181 999 90Q857 -30 637 -30Q552 -30 472 -10T315 52Z" />
<glyph unicode="T" glyph-name="T" d="M714 1007V205H852Q926 205 957 177T989 102Q989 57 958 29T852 0H372Q298 0 267 28T235 103Q235 148 266 176T372 205H509V1007H287V813Q287 739 259 708T184 676Q139 676 111 707T82 813V1213L1144 1212V813Q1144 739 1116
708T1041 676Q996 676 968 707T939 813V1007H714Z" />
<glyph unicode="U" glyph-name="U" d="M1083 1007V426Q1083 236 947 103T618 -30Q523 -30 440 3T290 102T186 237T149 426V1007Q84 1007 53 1036T22 1110Q22 1156 53 1184T159 1212L428 1213Q502 1213 533 1185T565 1110Q565 1064 534 1036T428 1007H354V408Q354
316 430 246T615 175Q687 175 750 209T853 308Q878 349 878 408V1007H804Q730 1007 699 1035T667 1110Q667 1156 698 1184T804 1213L1073 1212Q1147 1212 1178 1184T1210 1110Q1210 1065 1179 1036T1083 1007Z" />
<glyph unicode="V" glyph-name="V" d="M614 299L911 1007H864Q790 1007 759 1035T727 1110Q727 1156 758 1184T864 1213L1139 1212Q1213 1212 1244 1184T1276 1110Q1276 1055 1228 1023Q1205 1007 1134 1007L713 0H516L96 1007Q24 1007 1 1023Q-47 1054 -47 1110Q-47
1156 -16 1184T90 1213L367 1212Q440 1212 471 1184T503 1110Q503 1064 472 1036T367 1007H319L614 299Z" />
<glyph unicode="W" glyph-name="W" d="M615 582L425 0H195L73 1007Q26 1013 2 1039T-22 1107Q-22 1155 9 1184T115 1213L388 1212Q462 1212 493 1184T525 1110Q525 1064 494 1036T388 1007H281L349 434L510 911H723L883 434L951 1007H844Q770 1007 739 1035T707
1110Q707 1156 738 1184T844 1213L1116 1212Q1190 1212 1221 1184T1253 1110Q1253 1071 1228 1043T1156 1007L1038 0H812L615 582Z" />
<glyph unicode="X" glyph-name="X" d="M749 618L1091 205Q1152 204 1182 176T1213 102Q1213 57 1182 29T1076 0H845Q772 0 741 28T709 103Q709 146 738 174T825 205L619 459L411 205Q468 203 497 174T526 102Q526 57 495 29T389 0H159Q85 0 54 28T22 103Q22 147
53 176T144 205L484 620L160 1007Q100 1009 71 1037T41 1110Q41 1156 72 1184T178 1213L367 1212Q441 1212 472 1184T504 1110Q504 1076 484 1048Q471 1031 426 1007L617 778L804 1007Q759 1031 746 1048Q726 1076 726 1110Q726 1155 757 1184T863 1213L1051 1212Q1125
1212 1156 1184T1188 1110Q1188 1066 1158 1037T1069 1007L749 618Z" />
<glyph unicode="Y" glyph-name="Y" d="M718 509V205H856Q930 205 961 177T993 102Q993 57 962 29T856 0H375Q302 0 271 28T239 103Q239 148 270 176T375 205H513V509L174 1007Q106 1007 75 1036T43 1110Q43 1156 74 1184T180 1213L366 1212Q440 1212 471 1184T503
1110Q503 1041 422 1007L616 721L806 1007Q761 1024 742 1050T723 1110Q723 1156 754 1184T860 1213L1053 1212Q1127 1212 1158 1184T1190 1110Q1190 1064 1158 1036T1054 1007L718 509Z" />
<glyph unicode="Z" glyph-name="Z" d="M413 205H878V357Q878 431 906 462T981 494Q1027 494 1055 463T1084 357L1083 0H151V205L776 1007H398V860Q398 786 370 755T296 723Q250 723 222 754T193 860V1213L1041 1212V1012L413 205Z" />
<glyph unicode="[" glyph-name="bracketleft" d="M715 1089V-115H839Q913 -115 944 -143T976 -217Q976 -263 945 -291T839 -320H510V1294H838Q912 1294 943 1266T975 1191Q975 1146 944 1118T838 1089H715Z" />
<glyph unicode="\" glyph-name="backslash" d="M380 1356L1038 -54Q1043 -65 1055 -105Q1061 -128 1061 -140Q1061 -176 1033 -203T962 -230Q923 -230 900 -212T852 -142L195 1269Q170 1322 170 1348Q170 1386 200 1416T272 1446Q309 1446 332 1428T380 1356Z" />
<glyph unicode="]" glyph-name="bracketright" d="M514 -115V1089H390Q316 1089 285 1117T253 1191Q253 1237 284 1265T390 1294H719V-320H391Q317 -320 286 -292T254 -217Q254 -172 285 -144T391 -115H514Z" />
<glyph unicode="^" glyph-name="asciicircum" d="M612 1031L371 741Q338 701 318 689T271 677Q228 677 198 707T167 782Q167 817 212 872L612 1355L1015 872Q1044 837 1052 819T1061 781Q1061 738 1031 708T958 677Q930 677 910 689T857 740L612 1031Z" />
<glyph unicode="_" glyph-name="underscore" d="M1182 -615H56Q-18 -615 -49 -587T-81 -513Q-81 -467 -50 -439T56 -410H1182Q1255 -410 1286 -438T1318 -513Q1318 -558 1287 -586T1182 -615Z" />
<glyph unicode="`" glyph-name="grave" d="M544 1340L769 1157Q810 1125 810 1093Q810 1065 791 1046T743 1027Q720 1027 686 1054L460 1237Q420 1269 420 1301Q420 1329 439 1348T487 1367Q510 1367 544 1340Z" />
<glyph unicode="a" glyph-name="a" d="M799 0V48Q722 7 629 -13T460 -34Q295 -34 192 53T89 247Q89 376 220 486T584 597Q677 597 799 577V626Q799 672 760 701T609 730Q518 730 373 694Q319 681 289 681Q248 681 220 710T191 786Q191 812 201 831T229 861T304
889Q380 910 459 922T602 935Q793 935 898 853T1004 627V205H1039Q1113 205 1144 177T1176 102Q1176 57 1145 29T1039 0H799ZM799 367Q676 391 572 391Q447 391 357 330Q301 291 301 251Q301 222 328 204Q378 171 465 171Q539 171 632 200T799 279V367Z" />
<glyph unicode="b" glyph-name="b" d="M356 1297V837Q431 886 508 910T665 935Q878 935 1026 788T1174 433Q1174 234 1033 101T661 -33Q579 -33 503 -12T356 50V0H116Q42 0 11 28T-21 103Q-21 148 11 176T116 205H151V1092H116Q42 1092 11 1120T-21 1195Q-21 1240
10 1268T116 1297H356ZM969 427Q969 554 880 642T662 730Q534 730 445 642T356 430Q356 317 436 245T662 172Q808 172 888 244T969 427Z" />
<glyph unicode="c" glyph-name="c" d="M934 871Q971 906 1010 906Q1054 906 1082 875T1111 770V638Q1111 564 1083 533T1008 502Q966 502 937 526Q916 544 904 599T846 682Q765 730 639 730Q494 730 407 645T319 430Q319 310 403 241T682 171Q810 171 891 197Q939
213 982 251T1060 290Q1102 290 1132 259T1163 186Q1163 118 1070 57Q932 -34 666 -34Q427 -34 294 65Q114 198 114 429Q114 648 260 791T641 935Q726 935 799 919T934 871Z" />
<glyph unicode="d" glyph-name="d" d="M1085 1297V205H1120Q1193 205 1225 177T1257 102Q1257 57 1226 29T1120 0H880V50Q810 9 734 -12T575 -33Q344 -33 203 100T62 433Q62 641 210 788T571 935Q651 935 728 911T880 837V1092H845Q771 1092 740 1120T708 1194Q708
1240 739 1268T845 1297H1085ZM880 427Q880 554 791 642T573 730Q445 730 356 642T267 430Q267 317 347 245T573 172Q718 172 799 244T880 427Z" />
<glyph unicode="e" glyph-name="e" d="M1129 350H288Q320 270 401 221T622 172Q736 172 925 221Q1003 241 1033 241Q1074 241 1102 212T1130 139Q1130 99 1100 71Q1060 34 905 1T607 -33Q361 -33 214 106T66 448Q66 664 225 799T593 935Q718 935 822 891T978 796Q1050
722 1097 613Q1129 537 1129 437V350ZM902 555Q855 643 779 686T598 730Q494 730 418 687T294 555H902Z" />
<glyph unicode="f" glyph-name="f" d="M613 703V205H905Q979 205 1010 177T1042 102Q1042 57 1011 29T905 0H286Q212 0 181 28T149 103Q149 148 180 176T286 205H408V703H310Q236 703 205 731T173 806Q173 851 204 879T310 908H408V986Q408 1120 508 1208T800
1297Q885 1297 996 1282T1139 1238T1171 1166Q1171 1119 1143 1090T1074 1060Q1055 1060 1017 1067Q890 1092 792 1092Q690 1092 652 1062T613 986V908H929Q1003 908 1034 880T1066 805Q1066 760 1035 732T929 703H613Z" />
<glyph unicode="g" glyph-name="g" d="M840 847V908H1080Q1154 908 1185 880T1217 805Q1217 760 1186 732T1080 703H1045V-43Q1045 -151 1000 -231T860 -370T648 -428H416Q342 -428 311 -400T279 -326Q279 -280 310 -252T416 -223H642Q736 -223 788 -172T840 -43V57Q772
13 702 -9T557 -31Q348 -31 207 108T66 453Q66 659 207 798T557 938Q635 938 705 916T840 847ZM839 454Q839 567 756 650T555 733Q438 733 355 650T271 454Q271 340 354 258T555 175Q672 175 755 257T839 454Z" />
<glyph unicode="h" glyph-name="h" d="M403 1297V860Q467 898 532 916T665 935Q771 935 854 899T991 786T1046 590V205Q1124 205 1148 190Q1196 159 1196 102Q1196 57 1165 29T1060 0H826Q753 0 722 28T690 103Q690 159 738 190Q763 206 840 205V576Q840 655 804
687Q757 730 665 730Q597 730 545 704T403 589V205Q482 205 505 190Q554 159 554 102Q554 57 523 29T417 0H184Q110 0 79 28T47 103Q47 159 96 190Q120 206 198 205V1092H163Q89 1092 58 1120T26 1195Q26 1240 57 1268T163 1297H403Z" />
<glyph unicode="i" glyph-name="i" d="M688 1297V1080H444V1297H688ZM716 908V205H962Q1036 205 1067 177T1099 102Q1099 57 1068 29T962 0H265Q191 0 160 28T128 103Q128 148 159 176T265 205H511V703H346Q273 703 241 731T209 806Q209 851 240 879T346 908H716Z" />
<glyph unicode="j" glyph-name="j" d="M821 1297V1080H576V1297H821ZM737 703H319Q245 703 214 731T182 806Q182 851 213 879T319 908H942V-43Q942 -151 897 -231T757 -370T545 -428H313Q239 -428 208 -400T176 -326Q176 -280 207 -252T313 -223H539Q633 -223
685 -172T737 -43V703Z" />
<glyph unicode="k" glyph-name="k" d="M446 341V0H206Q132 0 101 28T69 103Q69 148 101 176T206 205H241V1092H206Q132 1092 101 1120T69 1195Q69 1240 100 1268T206 1297H446V606L606 735Q581 778 581 805Q581 851 612 879T717 908H951Q1025 908 1056 880T1088
805Q1088 760 1057 732T951 703H894L645 501L980 205H1040Q1114 205 1145 177T1177 102Q1177 57 1146 29T1040 0H804Q730 0 699 28T667 103Q667 142 701 180L484 372L446 341Z" />
<glyph unicode="l" glyph-name="l" d="M717 1297V205H963Q1037 205 1068 177T1100 102Q1100 57 1069 29T963 0H266Q192 0 161 28T129 103Q129 148 160 176T266 205H512V1092H347Q274 1092 242 1120T210 1195Q210 1240 241 1268T347 1297H717Z" />
<glyph unicode="m" glyph-name="m" d="M298 908V850Q348 899 388 917T482 936Q527 936 571 914T657 848Q710 892 764 913T876 935Q990 935 1061 874Q1155 794 1155 664V205Q1219 205 1250 176T1281 102Q1281 57 1250 29T1145 0H950V647Q950 694 933 712T881 730Q847
730 818 712Q781 687 728 618V205Q792 205 823 176T854 102Q854 57 823 29T718 0H523V647Q523 693 506 711T453 730Q417 730 382 708T298 618V205Q362 205 393 176T425 102Q425 57 394 29T288 0H103Q29 0 -2 28T-34 103Q-34 148 -3 176T93 205V703Q28 703 -3 732T-34
806Q-34 851 -3 879T103 908H298Z" />
<glyph unicode="n" glyph-name="n" d="M407 908V839Q463 887 530 911T677 935Q859 935 965 822Q1049 732 1049 586V205Q1114 205 1145 177T1176 102Q1176 57 1145 29T1039 0H854Q780 0 749 28T717 103Q717 148 748 176T844 205V592Q844 659 808 690Q761 730 667
730Q596 730 543 703T407 586V205Q486 205 509 190Q558 160 558 102Q558 57 527 29T421 0H188Q114 0 83 28T51 103Q51 159 99 190Q123 205 202 205V703Q137 703 106 732T75 806Q75 851 106 879T212 908H407Z" />
<glyph unicode="o" glyph-name="o" d="M1147 437Q1147 319 1082 209T887 33T616 -33Q476 -33 348 31T153 207T86 439Q86 562 154 680T349 867T616 935Q756 935 885 866T1081 679T1147 437ZM942 436Q942 535 871 618Q774 730 616 730Q477 730 384 641T291 435Q291
339 385 256T616 172Q754 172 848 255T942 436Z" />
<glyph unicode="p" glyph-name="p" d="M360 113V-223H483Q557 -223 588 -251T620 -326Q620 -371 589 -399T483 -428H120Q46 -428 15 -400T-17 -326Q-17 -280 15 -252T120 -223H155V703H120Q46 703 15 731T-17 806Q-17 851 14 879T120 908H360V838Q432 887 509
911T667 935Q877 935 1025 793T1173 466Q1173 263 998 131Q852 21 669 21Q590 21 513 44T360 113ZM968 465Q968 508 934 574T830 685T664 730Q511 730 421 615Q360 536 360 463Q360 381 447 304T664 226Q794 226 881 303T968 465Z" />
<glyph unicode="q" glyph-name="q" d="M1090 703V-223H1126Q1199 -223 1230 -251T1262 -326Q1262 -371 1231 -399T1126 -428H763Q689 -428 658 -400T626 -326Q626 -280 657 -252T763 -223H885V113Q810 67 733 44T576 21Q393 21 247 131Q72 263 72 466Q72 650 220
792T579 935Q660 935 736 911T885 838V908H1126Q1199 908 1230 880T1262 805Q1262 760 1231 732T1126 703H1090ZM885 465Q885 508 851 574T746 685T581 730Q427 730 338 615Q277 536 277 463Q277 380 364 303T581 226Q711 226 798 303T885 465Z" />
<glyph unicode="r" glyph-name="r" d="M572 908V780Q701 873 775 904T915 935Q1015 935 1109 861Q1173 811 1173 759Q1173 715 1143 685T1069 654Q1031 654 989 692T914 730Q871 730 786 676T572 514V205H864Q938 205 969 177T1001 102Q1001 57 970 29T864 0H245Q171
0 140 28T108 103Q108 148 139 176T245 205H367V703H293Q219 703 188 731T156 806Q156 851 187 879T293 908H572Z" />
<glyph unicode="s" glyph-name="s" d="M836 668Q786 699 731 714T616 730Q497 730 427 691Q396 674 396 654Q396 631 438 609Q470 593 581 578Q785 550 865 522Q970 485 1027 412T1084 258Q1084 148 987 74Q848 -33 626 -33Q537 -33 462 -18T323 28Q308 15 291
8T256 1Q208 1 180 32T151 138V207Q151 281 179 312T254 344Q291 344 316 324T355 253Q402 213 468 193T620 172Q761 172 839 216Q876 238 876 262Q876 302 823 328Q770 354 604 372Q357 398 274 472Q191 545 191 652Q191 762 284 835Q410 935 614 935Q685 935
750 922T876 880Q895 894 911 901T942 908Q984 908 1012 877T1040 771V721Q1040 654 1024 630Q992 584 937 584Q900 584 872 607T836 668Z" />
<glyph unicode="t" glyph-name="t" d="M564 703V292Q564 226 591 205Q633 172 741 172Q898 172 1031 239Q1082 265 1111 265Q1151 265 1180 235T1210 162Q1210 122 1178 93Q1129 46 985 7T741 -33Q550 -33 455 49T359 252V703H285Q211 703 180 731T148 806Q148
851 179 879T285 908H359V1093Q359 1167 387 1198T462 1230Q507 1230 535 1199T564 1093V908H943Q1017 908 1048 880T1080 805Q1080 760 1049 732T943 703H564Z" />
<glyph unicode="u" glyph-name="u" d="M1050 908V205Q1115 205 1146 176T1177 102Q1177 57 1146 29T1040 0H845V47Q757 7 677 -13T525 -33Q424 -33 350 9T233 127Q202 181 202 262V703H167Q93 703 62 731T30 806Q30 851 61 879T167 908H407V298Q407 233 438 203T535
172Q597 172 668 196T845 285V703H771Q697 703 666 731T634 806Q634 851 665 879T771 908H1050Z" />
<glyph unicode="v" glyph-name="v" d="M616 249L837 703Q755 703 732 717Q682 748 682 806Q682 851 713 879T819 908H1100Q1174 908 1205 880T1237 805Q1237 760 1206 732T1100 703H1066L723 0H509L166 703H137Q63 703 32 731T0 806Q0 851 31 879T137 908H412Q485
908 516 880T548 805Q548 748 500 718Q476 703 393 703L616 249Z" />
<glyph unicode="w" glyph-name="w" d="M616 378L474 0H281L109 703Q53 706 25 734T-4 806Q-4 851 27 879T133 908H324Q398 908 429 880T461 805Q461 759 425 727Q398 703 319 703L397 378L524 711H706L834 378L914 703Q838 703 814 718Q766 749 766 806Q766 851
797 879T903 908H1096Q1170 908 1201 880T1233 805Q1233 764 1206 736T1124 703L956 0H766L616 378Z" />
<glyph unicode="x" glyph-name="x" d="M768 472L1079 205Q1135 202 1163 174T1191 102Q1191 57 1160 29T1054 0H821Q747 0 716 28T684 104Q684 140 706 167T768 205L615 337L459 205Q506 193 526 168T547 104Q547 57 516 29T411 0H180Q106 0 75 28T43 103Q43 145
71 173T155 205L459 473L190 703Q137 707 110 735T82 806Q82 851 113 879T219 908H411Q485 908 516 880T548 807Q548 748 492 711L616 608L738 713Q683 752 683 803Q683 851 714 879T820 908H1010Q1084 908 1115 880T1147 805Q1147 764 1120 736T1038 703L768 472Z"
/>
<glyph unicode="y" glyph-name="y" d="M500 7L145 703Q95 709 69 737T43 805Q43 851 74 879T180 908H367Q441 908 472 880T504 805Q504 760 473 732T373 703L615 232L855 703Q789 703 758 731T726 806Q726 851 757 879T863 908H1056Q1129 908 1160 880T1192 805Q1192
764 1165 736T1085 703L615 -223Q692 -223 716 -238Q764 -269 764 -326Q764 -371 733 -399T627 -428H180Q106 -428 75 -400T43 -326Q43 -280 74 -252T180 -223H384L500 7Z" />
<glyph unicode="z" glyph-name="z" d="M504 205H864Q867 262 895 290T966 319Q1012 319 1040 288T1069 182V0H177V170L717 703H403V683Q403 610 375 579T300 547Q254 547 226 578T197 683L198 908H1046V740L504 205Z" />
<glyph unicode="{" glyph-name="braceleft" d="M656 497Q692 456 705 418T718 293V-33Q718 -74 733 -91T791 -112T860 -145T887 -216Q887 -260 857 -290T779 -320Q712 -320 650 -285T542 -169Q513 -117 513 -48V313Q513 356 499 372T439 393T369 426T344 497Q344
542 368 569T439 601T496 620Q513 640 513 682V1024Q513 1134 593 1214T778 1295Q826 1295 856 1265T887 1191Q887 1150 860 1121T790 1088T736 1070Q718 1049 718 1008V682Q718 613 705 576T656 497Z" />
<glyph unicode="|" glyph-name="bar" d="M718 1097V-123Q718 -228 713 -248Q705 -278 678 -299T616 -320Q581 -320 554 -299T518 -246Q513 -228 513 -123V1097Q513 1202 518 1222Q526 1252 553 1273T616 1294Q650 1294 677 1273T713 1221Q718 1201 718 1097Z" />
<glyph unicode="}" glyph-name="braceright" d="M568 497Q533 538 520 576T506 682V1008Q506 1049 491 1066T433 1088T364 1121T337 1191Q337 1235 367 1265T445 1295Q512 1295 574 1260T682 1144Q711 1092 711 1024V682Q711 639 725 623T785 601T855 569T880
497Q880 453 856 426T785 394T728 375Q711 355 711 313V-48Q711 -159 631 -239T446 -320Q398 -320 368 -290T337 -216Q337 -175 364 -146T434 -113T488 -95Q506 -74 506 -33V293Q506 379 518 417T568 497Z" />
<glyph unicode="~" glyph-name="asciitilde" d="M1001 729Q1045 729 1075 699T1105 627Q1105 584 1060 531Q992 452 946 419Q878 369 801 369Q743 369 686 398T544 508T434 590Q422 590 411 582Q389 568 340 513T270 447T230 435Q188 435 157 466T125 538Q125
599 229 697T433 795Q488 795 546 767T699 644Q748 595 771 582Q786 574 798 574Q812 574 823 582Q848 599 903 664Q938 706 957 717T1001 729Z" />
</font>
</defs>
</svg>
